<svg width="38" height="38" viewBox="0 0 38 38" fill="none" xmlns="http://www.w3.org/2000/svg">
<path fill-rule="evenodd" clip-rule="evenodd" d="M9 19C9 18.697 9.13168 18.4063 9.36608 18.192C9.60047 17.9777 9.91838 17.8573 10.2499 17.8573H24.7307L19.3638 12.9531C19.1292 12.7385 18.9973 12.4475 18.9973 12.1441C18.9973 11.8407 19.1292 11.5497 19.3638 11.3351C19.5985 11.1205 19.9168 11 20.2487 11C20.5806 11 20.899 11.1205 21.1336 11.3351L28.6328 18.191C28.7492 18.2971 28.8415 18.4232 28.9046 18.5621C28.9676 18.7009 29 18.8497 29 19C29 19.1503 28.9676 19.2991 28.9046 19.4379C28.8415 19.5768 28.7492 19.7029 28.6328 19.809L21.1336 26.6649C20.899 26.8795 20.5806 27 20.2487 27C19.9168 27 19.5985 26.8795 19.3638 26.6649C19.1292 26.4503 18.9973 26.1593 18.9973 25.8559C18.9973 25.5525 19.1292 25.2615 19.3638 25.0469L24.7307 20.1427H10.2499C9.91838 20.1427 9.60047 20.0223 9.36608 19.808C9.13168 19.5937 9 19.3031 9 19Z" fill="#C4C4C4"/>
<circle cx="19" cy="19" r="18" stroke="url(#paint0_angular)" stroke-width="2"/>
<defs>
<radialGradient id="paint0_angular" cx="0" cy="0" r="1" gradientUnits="userSpaceOnUse" gradientTransform="translate(19 19) rotate(-90) scale(19)">
<stop stop-color="#303030"/>
<stop offset="0.0001" stop-color="#FAC800"/>
<stop offset="0.390625" stop-color="#FAC800"/>
<stop offset="0.390725" stop-color="#303030"/>
</radialGradient>
</defs>
</svg>
