<svg width="20" height="16" viewBox="0 0 20 16" fill="none" xmlns="http://www.w3.org/2000/svg">
<path fill-rule="evenodd" clip-rule="evenodd" d="M0 8C0 7.69695 0.131682 7.40631 0.366076 7.19202C0.60047 6.97774 0.918377 6.85735 1.24986 6.85735H15.7307L10.3638 1.95309C10.1292 1.73853 9.9973 1.44753 9.9973 1.14409C9.9973 0.840662 10.1292 0.549657 10.3638 0.335098C10.5985 0.120538 10.9168 0 11.2487 0C11.5806 0 11.899 0.120538 12.1336 0.335098L19.6328 7.191C19.7492 7.29715 19.8415 7.42324 19.9046 7.56206C19.9676 7.70088 20 7.8497 20 8C20 8.1503 19.9676 8.29912 19.9046 8.43794C19.8415 8.57676 19.7492 8.70286 19.6328 8.809L12.1336 15.6649C11.899 15.8795 11.5806 16 11.2487 16C10.9168 16 10.5985 15.8795 10.3638 15.6649C10.1292 15.4503 9.9973 15.1593 9.9973 14.8559C9.9973 14.5525 10.1292 14.2615 10.3638 14.0469L15.7307 9.14265H1.24986C0.918377 9.14265 0.60047 9.02227 0.366076 8.80798C0.131682 8.59369 0 8.30305 0 8Z" fill="#C4C4C4"/>
</svg>
