<svg width="20" height="16" viewBox="0 0 20 16" fill="none" xmlns="http://www.w3.org/2000/svg">
<path fill-rule="evenodd" clip-rule="evenodd" d="M20 8C20 8.30305 19.8683 8.59369 19.6339 8.80798C19.3995 9.02226 19.0816 9.14265 18.7501 9.14265L4.26926 9.14265L9.63616 14.0469C9.87085 14.2615 10.0027 14.5525 10.0027 14.8559C10.0027 15.1593 9.87085 15.4503 9.63616 15.6649C9.40147 15.8795 9.08316 16 8.75126 16C8.41935 16 8.10105 15.8795 7.86635 15.6649L0.367193 8.809C0.250797 8.70285 0.158451 8.57676 0.0954418 8.43794C0.0324326 8.29912 0 8.1503 0 8C0 7.8497 0.0324326 7.70088 0.0954418 7.56206C0.158451 7.42324 0.250797 7.29714 0.367193 7.191L7.86635 0.335096C8.10105 0.120537 8.41935 0 8.75126 0C9.08316 0 9.40147 0.120537 9.63616 0.335096C9.87085 0.549656 10.0027 0.840661 10.0027 1.14409C10.0027 1.44753 9.87085 1.73853 9.63616 1.95309L4.26926 6.85735L18.7501 6.85735C19.0816 6.85735 19.3995 6.97773 19.6339 7.19202C19.8683 7.40631 20 7.69695 20 8Z" fill="#C4C4C4"/>
</svg>
