<svg width="38" height="38" viewBox="0 0 38 38" fill="none" xmlns="http://www.w3.org/2000/svg">
<path fill-rule="evenodd" clip-rule="evenodd" d="M29 19C29 19.303 28.8683 19.5937 28.6339 19.808C28.3995 20.0223 28.0816 20.1427 27.7501 20.1427L13.2693 20.1427L18.6362 25.0469C18.8708 25.2615 19.0027 25.5525 19.0027 25.8559C19.0027 26.1593 18.8708 26.4503 18.6362 26.6649C18.4015 26.8795 18.0832 27 17.7513 27C17.4194 27 17.101 26.8795 16.8664 26.6649L9.36719 19.809C9.2508 19.7029 9.15845 19.5768 9.09544 19.4379C9.03243 19.2991 9 19.1503 9 19C9 18.8497 9.03243 18.7009 9.09544 18.5621C9.15845 18.4232 9.2508 18.2971 9.36719 18.191L16.8664 11.3351C17.101 11.1205 17.4194 11 17.7513 11C18.0832 11 18.4015 11.1205 18.6362 11.3351C18.8708 11.5497 19.0027 11.8407 19.0027 12.1441C19.0027 12.4475 18.8708 12.7385 18.6362 12.9531L13.2693 17.8573L27.7501 17.8573C28.0816 17.8573 28.3995 17.9777 28.6339 18.192C28.8683 18.4063 29 18.6969 29 19Z" fill="#C4C4C4"/>
<circle cx="19" cy="19" r="18" stroke="#303030" stroke-width="2"/>
</svg>
