<svg width="15" height="17" viewBox="0 0 15 17" fill="none" xmlns="http://www.w3.org/2000/svg">
<path d="M1.36275 0C0.365575 0 0 0.359639 0 1.33072V13.0618C0 13.1728 0.00598409 13.2748 0.0146883 13.3693C0.0402567 13.5824 0.0402567 13.7901 0.243717 14.0222C0.263301 14.0498 0.467849 14.1964 0.467849 14.1964C0.578283 14.249 0.654444 14.2878 0.779023 14.3372L6.8257 16.8106C7.13742 16.9493 7.27124 17.0077 7.49755 16.9992H7.50027C7.7293 17.0077 7.86313 16.9498 8.17484 16.8106L14.2183 14.3372C14.3461 14.2878 14.419 14.2485 14.5322 14.1964C14.5322 14.1964 14.7367 14.044 14.7563 14.0222C14.9603 13.7901 14.9603 13.5824 14.9853 13.3693C14.994 13.2753 15 13.1733 15 13.0649V1.33125C15 0.36017 14.6317 0.000531225 13.6373 0.000531225L1.36275 0ZM11.0505 2.20193H11.5428C12.3648 2.20193 12.7674 2.59238 12.7674 3.40621V4.73693H11.7702V3.45827C11.7702 3.1985 11.6484 3.07951 11.3899 3.07951H11.2202C10.9542 3.07951 10.8323 3.1985 10.8323 3.45827V7.57473C10.8323 7.8345 10.9542 7.9535 11.2202 7.9535H11.4101C11.6647 7.9535 11.7865 7.8345 11.7865 7.57473V6.10271H12.7837V7.62201C12.7837 8.43213 12.3762 8.83108 11.5515 8.83108H11.0505C10.223 8.83108 9.81721 8.42947 9.81721 7.62201V3.41312C9.81721 2.603 10.2225 2.20193 11.0505 2.20193ZM2.20977 2.25824H4.46796V3.16291H3.22381V5.0052H4.4228V5.90775H3.22381V7.87169H4.48537V8.77689H2.20977V2.25824ZM4.9777 2.25824H6.57056C7.39473 2.25824 7.80274 2.65931 7.80274 3.46943V5.20175C7.80274 6.01187 7.39419 6.41082 6.57056 6.41082H5.99554V8.77636H4.9777V2.25824ZM8.26189 2.25824H9.27592V8.77689H8.26189V2.25824ZM5.99227 3.13476V5.53589H6.41171C6.66685 5.53589 6.78871 5.41477 6.78871 5.15394V3.51618C6.78871 3.25641 6.66685 3.13423 6.41171 3.13423L5.99227 3.13476ZM3.19552 10.3254H3.34566L3.37994 10.3313H3.43434L3.46263 10.3398H3.49092L3.51648 10.3477L3.54477 10.3536L3.56708 10.3594L3.61767 10.3706L3.6465 10.3785L3.66609 10.3844L3.68839 10.3929L3.71668 10.4014L3.73626 10.4093L3.7651 10.4205L3.79066 10.4317L3.81297 10.4449L3.83854 10.4561L3.85812 10.4694L3.88695 10.4837L3.90926 10.497L3.93156 10.5082L3.95387 10.5246L3.97726 10.539L3.99684 10.5554L4.06485 10.6059L4.04744 10.6277L4.02785 10.6468L4.01045 10.6665L3.99086 10.6882L3.97726 10.7074L3.95985 10.727L3.94027 10.7461L3.92286 10.7679L3.90926 10.787L3.88913 10.8099L3.87227 10.829L3.85268 10.8508L3.83527 10.8705L3.82167 10.8922L3.80154 10.9114L3.78468 10.9342L3.7651 10.9533L3.74769 10.9724L3.7281 10.9592L3.7058 10.9395L3.68241 10.9262L3.64052 10.8986L3.61495 10.8843L3.59156 10.871L3.56599 10.8566L3.5464 10.8455L3.5241 10.8349L3.4784 10.8179L3.45011 10.8131L3.42781 10.8072L3.40224 10.8014L3.37341 10.7955L3.34512 10.7929H3.31683L3.28365 10.787H3.22925L3.20096 10.7897H3.17267L3.14438 10.7982L3.12208 10.804L3.09651 10.8125L3.07094 10.8173L3.04755 10.8285L3.01926 10.8396L2.98009 10.8673L2.9567 10.8805L2.93711 10.8975L2.91753 10.9108L2.8974 10.9278L2.8838 10.9469L2.86041 10.9661L2.83212 11.0049L2.81852 11.0266L2.80709 11.0516L2.79349 11.0713L2.77881 11.0962L2.7701 11.1212L2.75922 11.143L2.75052 11.1706L2.7478 11.1982L2.73964 11.2237L2.73365 11.2513V11.279L2.73093 11.3066V11.3703L2.73365 11.398V11.4197L2.73637 11.4474L2.74127 11.4723L2.74997 11.4941L2.75269 11.5223L2.7614 11.544L2.76956 11.5632L2.78098 11.5908L2.79567 11.6184L2.80655 11.6381L2.83484 11.6822L2.85225 11.7039L2.86585 11.7236L2.88924 11.7401L2.90284 11.7592L2.92242 11.7762L2.96812 11.8097L2.98771 11.8203L3.01001 11.8346L3.03612 11.8458L3.06441 11.8564L3.08399 11.8676L3.14057 11.884L3.16614 11.8867L3.19443 11.8952L3.22272 11.8978H3.34458L3.37885 11.8952H3.40442L3.43325 11.884L3.46154 11.8814L3.48983 11.8734L3.51213 11.8676L3.5377 11.8564L3.56 11.8458L3.58557 11.8346L3.60298 11.8235L3.62529 11.8102V11.5637H3.22544V11.1685H4.12904V12.054L4.10945 12.0673L4.08987 12.0838L4.06974 12.0981L4.04744 12.1146L4.02513 12.1257L4.00555 12.1427L3.95985 12.1704L3.93156 12.1836L3.88641 12.2113L3.85758 12.2224L3.83527 12.233L3.80971 12.2442L3.75313 12.266L3.73082 12.2771L3.67914 12.2936L3.65357 12.2994L3.62801 12.3079L3.59972 12.3164L3.57741 12.3212L3.49255 12.3382L3.46643 12.3409L3.40986 12.3467L3.37885 12.3494L3.35056 12.3515L3.31955 12.3542H3.17811L3.14982 12.3494H3.12153L3.09324 12.3435H3.06767L3.03939 12.335L2.9567 12.3186L2.93439 12.3101L2.90882 12.3074L2.88054 12.2963L2.82885 12.2798L2.77826 12.258L2.74997 12.2469L2.73039 12.2357L2.7021 12.2251L2.68197 12.2081L2.65368 12.1974L2.63682 12.1831L2.61451 12.1698L2.56882 12.1364L2.54651 12.122L2.5291 12.1055L2.5068 12.0885L2.46981 12.053L2.45022 12.036L2.43336 12.0168L2.41323 11.9972L2.39963 11.9754L2.38222 11.9589L2.36862 11.9361L2.35121 11.9143L2.33761 11.8952L2.32292 11.8734L2.30932 11.8479L2.2979 11.8261L2.28648 11.8012L2.2756 11.7794L2.25329 11.7289L2.24459 11.7098L2.23316 11.6848L2.22718 11.6599L2.22228 11.6381L2.2163 11.6104L2.20759 11.5849L2.20161 11.5573L2.19889 11.5355L2.19399 11.5079L2.18801 11.4585L2.18203 11.4033V11.2566L2.18801 11.2285V11.2009L2.19671 11.1732V11.1456L2.20487 11.1207L2.21358 11.093L2.225 11.0436L2.23316 11.016L2.24187 10.991L2.27614 10.9161L2.28702 10.8944L2.29844 10.8694L2.31313 10.8439L2.32401 10.8221L2.3387 10.803L2.36699 10.7584L2.38385 10.7366L2.40126 10.7175L2.41486 10.6957L2.45186 10.6596L2.46872 10.6399L2.48885 10.6208L2.50571 10.6017L2.5291 10.5847L2.56827 10.5512L2.59058 10.5347L2.61397 10.5204L2.63355 10.5039L2.65586 10.4896L2.67925 10.4789L2.70482 10.4646L2.73311 10.4513L2.75269 10.437L2.78098 10.4263L2.80655 10.4152L2.83212 10.4019L2.85551 10.3961L2.8838 10.3876L2.9061 10.3764L2.93167 10.3716L2.95724 10.3631L2.98553 10.3573L3.00892 10.3488L3.03721 10.3429H3.0655L3.09107 10.335H3.11936L3.14764 10.3291H3.17321L3.19552 10.3254ZM11.8915 10.3313H12.0417L12.0759 10.3371H12.1298L12.1581 10.3451H12.1891L12.2174 10.3536L12.268 10.3647L12.2963 10.3706L12.3218 10.3753L12.3507 10.3838L12.3762 10.3923L12.3985 10.3982L12.4241 10.4062L12.4524 10.4147L12.4747 10.4258L12.503 10.4364L12.5291 10.4476L12.5547 10.4619L12.5743 10.4726L12.5998 10.4869L12.6254 10.4975L12.6488 10.5119L12.6744 10.5283L12.6939 10.5427L12.7396 10.5762L12.7619 10.5894L12.7445 10.6112L12.7309 10.6341L12.7141 10.6532L12.6967 10.675L12.6831 10.6999L12.6684 10.7228L12.6515 10.7419L12.6341 10.7637L12.6205 10.7865L12.6031 10.8083L12.5895 10.8274L12.5721 10.8492L12.5585 10.8747L12.5411 10.8965L12.5242 10.9156L12.5068 10.9374L12.4932 10.9602L12.4709 10.9432L12.4448 10.9299L12.4252 10.9156L12.4029 10.9023L12.3773 10.8912L12.3539 10.8768L12.3284 10.8662L12.3088 10.855L12.2805 10.8444L12.2604 10.8333L12.2381 10.8248L12.1875 10.8083L12.1309 10.7913L12.046 10.7748L12.0177 10.7722L11.9661 10.7663H11.9068L11.8757 10.7722L11.8475 10.778L11.8219 10.7839L11.7996 10.7945L11.7795 10.8056L11.7572 10.8248L11.7403 10.8497L11.7289 10.8752V10.9411L11.7436 10.9714L11.7544 10.9884L11.7718 11.0049L11.8001 11.0192L11.8224 11.0325L11.848 11.0436L11.8763 11.0543L11.9133 11.0628L11.9329 11.0713L11.9563 11.0771L11.9845 11.0829L12.0069 11.0909L12.0324 11.0968L12.0634 11.1053L12.0917 11.1138L12.1227 11.1217L12.1537 11.1276L12.1793 11.1361L12.2103 11.144L12.2386 11.1499L12.2642 11.1557L12.3496 11.1807L12.3719 11.1892L12.4002 11.1977L12.4257 11.2083L12.454 11.2227L12.5106 11.2444L12.5362 11.2588L12.5819 11.2864L12.6238 11.3167L12.6499 11.3331L12.6695 11.3523L12.689 11.3751L12.7092 11.3942L12.7228 11.4134L12.7429 11.441L12.7565 11.4606L12.7679 11.4883L12.7788 11.5047L12.7875 11.5324L12.7962 11.5552L12.8022 11.5802L12.8131 11.6354L12.8158 11.663L12.8185 11.688V11.7544L12.8158 11.7847L12.8098 11.8399L12.8038 11.8676L12.7957 11.8925L12.7897 11.9201L12.781 11.9478L12.7728 11.9727L12.7614 11.9924L12.75 12.0174L12.7364 12.0391L12.719 12.0588L12.6907 12.1029L12.6564 12.1417L12.6368 12.155L12.6145 12.1746L12.5971 12.1911L12.5748 12.2075L12.5525 12.2187L12.5302 12.2357L12.5041 12.249L12.4535 12.2739L12.4252 12.2851L12.3996 12.2957L12.3713 12.3042L12.3458 12.3127L12.3224 12.3186L12.2658 12.3292L12.2462 12.335L12.2179 12.3409H12.1896L12.1641 12.3467H12.1358L12.1075 12.3526H11.9057L11.8208 12.3441L11.7925 12.3382L11.7669 12.3356L11.7104 12.3249L11.6794 12.3191L11.6538 12.3133L11.6255 12.3048L11.5967 12.2989L11.5711 12.2909L11.5428 12.2824L11.5145 12.2713L11.4922 12.2633L11.4639 12.2548L11.4356 12.2437L11.4155 12.233L11.3872 12.2245L11.3649 12.2102L11.3366 12.1996L11.3143 12.1852L11.2942 12.172L11.2659 12.1576L11.2463 12.147L11.224 12.13L11.2017 12.1167L11.1783 12.0997L11.1587 12.0832L11.1364 12.0662L11.1163 12.053L11.094 12.0333L11.1114 12.0115L11.131 11.9924L11.1479 11.9727L11.168 11.951L11.1816 11.9318L11.199 11.9101L11.2186 11.8904L11.2354 11.8713L11.2556 11.8495L11.2692 11.8298L11.2893 11.8107L11.3062 11.7889L11.3236 11.7693L11.3432 11.7475L11.3568 11.7284L11.3769 11.7087L11.3965 11.6869L11.4161 11.7039L11.4422 11.7204L11.4618 11.7369L11.49 11.7512L11.5096 11.7656L11.5352 11.782L11.5586 11.7964L11.5842 11.807L11.6037 11.8213L11.6293 11.8293L11.6576 11.8405L11.681 11.8516L11.7066 11.8596L11.7289 11.8707L11.7572 11.8792L11.7827 11.8872L11.811 11.8957L11.8393 11.8984L11.8654 11.9069L11.8937 11.9095H11.9247L11.9503 11.9175H12.1031L12.1287 11.9127L12.157 11.9069L12.1766 11.9042L12.2 11.8957L12.2196 11.8851L12.2451 11.8681L12.2598 11.849L12.2707 11.8272L12.2794 11.8017V11.7379L12.268 11.713L12.2544 11.6912L12.237 11.6747L12.2114 11.6577L12.1918 11.6498L12.1662 11.6386L12.138 11.6274L12.107 11.6142L12.0868 11.6083L12.0645 11.6025L12.0362 11.594L12.0166 11.5892L11.9884 11.5807L11.9601 11.578L11.9312 11.5669L11.9029 11.5642L11.8719 11.5563L11.8464 11.5504L11.8181 11.5419L11.7898 11.5361L11.7615 11.5281L11.7359 11.5196L11.7076 11.5138L11.6853 11.5053L11.6337 11.4888L11.6054 11.4776L11.5771 11.4697L11.5205 11.4468L11.4949 11.4335L11.4667 11.4192L11.4471 11.4059L11.421 11.3916L11.4014 11.3783L11.3758 11.364L11.3388 11.3278L11.3192 11.3114L11.285 11.2726L11.2703 11.2535L11.2594 11.2343L11.242 11.2088L11.2338 11.1897L11.2077 11.1233L11.2028 11.0957L11.1968 11.0707V11.0458L11.1908 11.0181V10.905L11.1968 10.8497L11.2028 10.8269L11.2077 10.8019L11.2164 10.7801L11.2224 10.7525L11.2338 10.7334L11.2447 10.7052L11.2561 10.6835L11.267 10.6558L11.2817 10.6367L11.3013 10.6149L11.316 10.5921L11.3383 10.573L11.3551 10.5538L11.3725 10.531L11.3981 10.5119L11.4155 10.4975L11.4378 10.4811L11.483 10.4534L11.5085 10.4391L11.5602 10.4141L11.5825 10.4062L11.6081 10.3977L11.6364 10.3865L11.6647 10.3785L11.6848 10.3727L11.7104 10.3668L11.7327 10.361L11.7582 10.3552L11.7865 10.3493L11.8431 10.3445L11.8692 10.3419L11.8915 10.3313ZM5.1904 10.3504H5.70341L5.7268 10.4008L5.73768 10.4226L5.74638 10.4503L5.75781 10.4752L5.76597 10.497L5.78065 10.522L5.79752 10.5724L5.81221 10.5974L5.83451 10.6468L5.8405 10.6686L5.88565 10.7685L5.89435 10.7934L5.90578 10.8163L5.91938 10.8412L5.92536 10.8662L5.94005 10.8938L5.94495 10.9188L5.97106 10.9682L5.98194 10.9879L5.99336 11.0155L6.00207 11.0431L6.01023 11.0622L6.02492 11.0898L6.03362 11.1127L6.0445 11.1403L6.0532 11.1594L6.06463 11.1871L6.0902 11.2365L6.09836 11.2614L6.10434 11.2869L6.11577 11.3119L6.12937 11.3337L6.14079 11.3613L6.15221 11.3863L6.16037 11.408L6.18377 11.4585L6.19193 11.4835L6.20335 11.5085L6.21206 11.5334L6.22294 11.5552L6.23762 11.5807L6.2485 11.6057L6.25993 11.6274L6.26591 11.6551L6.28822 11.7045L6.29964 11.7273L6.3078 11.7523L6.33119 11.8017L6.34479 11.8293L6.35078 11.8511L6.36547 11.8792L6.37036 11.8984L6.38179 11.926L6.39647 11.9536L6.40736 11.9727L6.41606 12.0004L6.42748 12.0232L6.43564 12.0508L6.45033 12.07L6.4672 12.1252L6.47862 12.1449L6.4895 12.1725L6.50419 12.1943L6.51561 12.2219L6.52051 12.2469L6.52921 12.2686L6.54064 12.2936L6.55424 12.3164H5.98792L5.97432 12.2936L5.96562 12.2686L5.95419 12.2437L5.94331 12.216L5.93733 12.1943L5.91394 12.1449L5.90578 12.122L5.88347 12.0726L5.87477 12.0508L5.86334 12.0232L5.84648 11.9727L5.83506 11.951H5.04733L5.03645 11.9759L5.02774 11.9988L5.01632 12.0264L5.00544 12.0514L4.99946 12.0731L4.98803 12.1008L4.97715 12.1225L4.96845 12.1475L4.95702 12.1704L4.94614 12.198L4.93744 12.2171L4.92601 12.2447L4.91785 12.2724L4.90643 12.292L4.89773 12.3196H4.33685L4.34501 12.2941L4.3684 12.2447L4.37656 12.2171L4.38527 12.1953L4.39996 12.1704L4.41084 12.1454L4.42226 12.1225L4.42825 12.0976L4.43913 12.07L4.45381 12.0482L4.46469 12.0232L4.4821 11.9727L4.50767 11.9233L4.51637 11.8984L4.52726 11.8766L4.53596 11.8511L4.57023 11.7767L4.58166 11.7491L4.58982 11.7273L4.59852 11.7023L4.61321 11.6795L4.62409 11.6519L4.63279 11.6269L4.6415 11.6051L4.65238 11.5775L4.66707 11.5579L4.67577 11.5302L4.68665 11.5085L4.69535 11.4835L4.70678 11.4559L4.72038 11.4341L4.72908 11.4065L4.73996 11.3868L4.74867 11.3592L4.76009 11.3316L4.77097 11.3124L4.7824 11.2848L4.7911 11.262L4.80198 11.2343L4.81068 11.2152L4.82537 11.1876L4.83625 11.16L4.84768 11.1382L4.85366 11.1132L4.86454 11.0877L4.87923 11.0628L4.89011 11.041L4.89609 11.0133L4.90752 10.9884L4.91894 10.9655L4.94125 10.9161L4.94941 10.8944L4.9728 10.8391L4.98368 10.8195L4.9951 10.7918L5.00381 10.77L5.01197 10.7424L5.02339 10.7175L5.03808 10.6957L5.04896 10.6681L5.05766 10.6484L5.06637 10.6208L5.07725 10.599L5.09194 10.574L5.10064 10.5464L5.1088 10.5236L5.12023 10.4959L5.13111 10.4768L5.1458 10.4492L5.1545 10.4216L5.16266 10.4024L5.17408 10.3748L5.1904 10.3504ZM6.78327 10.3647H7.34414L7.36155 10.3865L7.38984 10.4311L7.40344 10.4561L7.41813 10.4752L7.43173 10.5002L7.44642 10.522L7.46002 10.5475L7.4747 10.5692L7.4883 10.5884L7.50299 10.6133L7.51659 10.6362L7.53672 10.658L7.54488 10.6797L7.56229 10.7047L7.57589 10.7276L7.5933 10.7467L7.60472 10.7716L7.61832 10.7934L7.63573 10.8163L7.64389 10.838L7.66402 10.863L7.70591 10.9294L7.71733 10.9512L7.7342 10.973L7.74889 10.9948L7.76249 11.0203L7.80546 11.0861L7.81906 11.1116L7.83375 11.1334L7.85061 11.1116L7.86204 11.0835L7.8789 11.0643L7.89359 11.0394L7.90719 11.0203L7.91862 10.9926L7.9382 10.973L7.95289 10.948L7.96431 10.9289L7.97791 10.906L7.99532 10.8811L8.00892 10.862L8.02361 10.8343L8.03721 10.8152L8.05462 10.7897L8.0655 10.7706L8.08019 10.743L8.09379 10.7265L8.10847 10.7036L8.12534 10.676L8.14003 10.6569L8.15091 10.6319L8.16832 10.6123L8.18192 10.5847L8.19661 10.5682L8.21347 10.5464L8.22816 10.5188L8.24176 10.4991L8.25645 10.4742L8.27005 10.455L8.28474 10.4274L8.3016 10.4078L8.31302 10.3828L8.32771 10.3637H8.89729V12.3393H8.36416V11.177L8.35056 11.1966L8.33315 11.2242L8.31955 11.2407L8.30214 11.2625L8.29126 11.2901L8.27386 11.3098L8.26025 11.3289L8.24285 11.3565L8.21456 11.3953L8.19769 11.4171L8.18301 11.4447L8.16614 11.4644L8.15145 11.4835L8.14057 11.5111L8.12316 11.5302L8.10956 11.5499L8.09216 11.5775L8.07856 11.5966L8.06115 11.6184L8.04755 11.6434L8.03612 11.663L8.01926 11.6848L8.00457 11.7098L7.9877 11.7289L7.9703 11.7518L7.95942 11.7735L7.94473 11.7985L7.92787 11.8182L7.91046 11.8399L7.89958 11.8676L7.87945 11.884L7.86857 11.9058L7.85116 11.934L7.83756 11.9531H7.82613L7.80927 11.9281L7.79458 11.9053L7.78098 11.8803L7.76629 11.8612L7.74943 11.8362L7.73474 11.8144L7.71788 11.7916L7.70319 11.7698L7.68959 11.7448L7.6749 11.7257L7.65531 11.7002L7.64389 11.6784L7.62703 11.6535L7.61234 11.6344L7.59874 11.6094L7.58133 11.5865L7.56773 11.5589L7.55032 11.5398L7.53672 11.5148L7.52203 11.492L7.50843 11.467L7.49102 11.4479L7.47742 11.4229L7.46002 11.4011L7.44913 11.3783L7.43173 11.3565L7.41813 11.3316L7.40072 11.3124L7.38712 11.2869L7.36971 11.2651L7.35883 11.2402L7.3387 11.2211L7.32782 11.1956L7.31041 11.1738V12.3388H6.78653V10.3823L6.78327 10.3647ZM9.29877 10.3647H10.8944V10.8104H9.82864V11.1286H10.7861V11.5494H9.82864V11.8867H10.908V12.335H9.30149V10.3817L9.29877 10.3647ZM5.43956 10.9703L5.43086 10.9953L5.4227 11.0181L5.41127 11.0458L5.39985 11.0707L5.39169 11.0957L5.3683 11.1451L5.35742 11.1727L5.34871 11.1956L5.34001 11.2232L5.32913 11.2423L5.32042 11.2699L5.309 11.2976L5.29812 11.3172L5.28941 11.3448L5.27853 11.3666L5.26983 11.3942L5.25514 11.4192L5.24916 11.441L5.23828 11.4686L5.22685 11.4941L5.21815 11.5159L5.20727 11.5435H5.67457L5.66369 11.5159L5.65499 11.4909L5.63268 11.4405L5.62398 11.4155L5.61256 11.3937L5.6044 11.3661L5.59297 11.3411L5.58427 11.3161L5.57339 11.2933L5.56468 11.2683L5.55326 11.2407L5.5451 11.2189L5.52171 11.1695L5.51681 11.144L5.50539 11.1191L5.49396 11.0914L5.4858 11.0723L5.46241 11.0171L5.45425 10.9921L5.43956 10.9703ZM4.60722 14.6698H10.4178L7.45185 15.6244L4.60722 14.6698Z" fill="#9E9E9E"/>
</svg>
