<svg width="17" height="17" viewBox="0 0 17 17" fill="none" xmlns="http://www.w3.org/2000/svg">
<path d="M8.48616 0C4.01447 0 0.346515 3.44186 0 7.81657L4.56325 9.70085C4.96359 9.42834 5.43704 9.28281 5.92163 9.2833C5.96581 9.2833 6.01052 9.28596 6.0547 9.28596L8.08429 6.35302V6.31158C8.08429 4.54364 9.52304 3.10772 11.2945 3.10772C13.0659 3.10772 14.5073 4.5463 14.5073 6.31424C14.5062 7.16407 14.1673 7.97874 13.5649 8.57941C12.9625 9.18009 12.146 9.51769 11.2945 9.51811H11.2226L8.32807 11.5793C8.32807 11.6181 8.33073 11.6542 8.33073 11.693C8.33073 13.0211 7.25499 14.0973 5.92429 14.0973C4.76551 14.0973 3.78399 13.267 3.55936 12.1663L0.293819 10.8159C1.30569 14.3853 4.5856 17 8.48616 17C13.1878 17 17 13.1958 17 8.50027C17 3.80469 13.1883 0.000531233 8.48616 0.000531233V0ZM5.33399 12.8989L4.28859 12.467C4.48111 12.8662 4.81341 13.1812 5.22274 13.3526C5.66581 13.5356 6.16353 13.5359 6.60682 13.3534C7.05011 13.1709 7.40282 12.8204 7.58767 12.3788C7.67938 12.1602 7.72683 11.9257 7.72728 11.6887C7.72774 11.4518 7.68119 11.2171 7.59033 10.9981C7.5007 10.778 7.36795 10.578 7.19986 10.4098C7.03177 10.2416 6.83173 10.1086 6.61147 10.0185C6.18706 9.84161 5.71088 9.83362 5.28076 9.99622L6.35916 10.4419C7.03836 10.7267 7.35985 11.5044 7.07721 12.1822C6.79457 12.8601 6.01265 13.181 5.33346 12.8989H5.33399ZM13.4348 6.3084C13.4342 5.7425 13.2089 5.19991 12.8082 4.79951C12.4075 4.39912 11.8641 4.17357 11.2971 4.17231C10.7295 4.17231 10.1851 4.39736 9.78372 4.79795C9.38233 5.19855 9.15683 5.74187 9.15683 6.3084C9.15683 6.87492 9.38233 7.41825 9.78372 7.81884C10.1851 8.21943 10.7295 8.44449 11.2971 8.44449C11.8643 8.44364 12.4079 8.21824 12.8087 7.81775C13.2095 7.41726 13.4346 6.87442 13.4348 6.3084ZM9.69497 6.30574C9.69497 5.41752 10.413 4.70088 11.3003 4.70088C12.1876 4.70088 12.911 5.41752 12.911 6.30574C12.911 7.19131 12.1876 7.9106 11.3003 7.9106C10.413 7.9106 9.69497 7.19131 9.69497 6.30574Z" fill="#9E9E9E"/>
</svg>
