<svg width="17" height="17" viewBox="0 0 17 17" fill="none" xmlns="http://www.w3.org/2000/svg">
<path d="M10.0412 17H12.6448C15.0354 17 17 15.0354 17 12.6448V4.35519C17 1.96456 15.0354 0 12.6448 0H9.98856C9.93597 0 9.88072 0.0525937 9.88072 0.105187V16.8948C9.88072 16.9474 9.93331 17 10.0412 17ZM13.2812 7.65053C14.2386 7.65053 14.9802 8.44741 14.9802 9.34947C14.9802 10.3068 14.1833 11.0484 13.2812 11.0484C12.3239 11.0484 11.5823 10.3068 11.5823 9.34947C11.5271 8.39481 12.3239 7.65053 13.2812 7.65053ZM8.07394 0H4.35519C1.96456 0 0 1.96456 0 4.35519V12.6448C0 15.0354 1.96456 17 4.35519 17H8.07394C8.12653 17 8.18178 16.9474 8.18178 16.8948V0.105187C8.18178 0.0525937 8.12919 0 8.07394 0ZM6.85366 15.6193H4.35519C3.9644 15.6199 3.57733 15.5434 3.21616 15.3941C2.855 15.2449 2.52685 15.0258 2.25052 14.7495C1.97419 14.4732 1.75511 14.145 1.60585 13.7838C1.4566 13.4227 1.38009 13.0356 1.38072 12.6448V4.35519C1.38009 3.9644 1.4566 3.57733 1.60585 3.21616C1.75511 2.855 1.97419 2.52685 2.25052 2.25052C2.52685 1.97419 2.855 1.75511 3.21616 1.60585C3.57733 1.4566 3.9644 1.38009 4.35519 1.38072H6.80106L6.85366 15.6193ZM2.65625 5.09947C2.65625 6.00153 3.34794 6.69322 4.25 6.69322C5.15206 6.69322 5.84375 6.00153 5.84375 5.09947C5.84375 4.19741 5.15206 3.50572 4.25 3.50572C3.34794 3.50572 2.65625 4.19741 2.65625 5.09947Z" fill="#9E9E9E"/>
</svg>
