<svg width="19" height="14" viewBox="0 0 19 14" fill="none" xmlns="http://www.w3.org/2000/svg">
<path d="M18.8319 10.7181C18.4592 11.1654 17.5521 11.4835 17.5521 11.4835L10.7869 13.8016V12.0913L15.7643 10.3969C16.3284 10.2047 16.4174 9.93071 15.9556 9.78583C15.4972 9.64095 14.6659 9.68189 14.1019 9.87717L10.7869 10.9953V9.2189C11.5522 8.97323 12.3405 8.79055 13.2839 8.68976C14.633 8.54803 16.2822 8.70866 17.5785 9.17795C19.0364 9.6189 19.2013 10.2709 18.8319 10.7181ZM11.4301 7.80472V3.42677C11.4301 2.91339 11.3312 2.44094 10.8265 2.30551C10.4406 2.18583 10.1998 2.52913 10.1998 3.04252V14L7.10586 13.0614V0C8.42194 0.233071 10.3384 0.784252 11.3675 1.11496C13.9898 1.9748 14.877 3.04567 14.877 5.45512C14.877 7.80157 13.3597 8.69291 11.4301 7.80472ZM1.4259 11.9118C-0.0716025 11.5087 -0.322286 10.6677 0.360496 10.1858C0.990503 9.73858 2.0658 9.40158 2.0658 9.40158L6.50224 7.89606V9.6126L3.30932 10.7024C2.74529 10.8945 2.65953 11.1685 3.11801 11.3134C3.5765 11.4583 4.40771 11.4173 4.97175 11.222L6.50224 10.6898V12.2268C4.80023 12.5197 3.15759 12.4567 1.4259 11.9118Z" fill="#9E9E9E"/>
</svg>
