<svg width="17" height="17" viewBox="0 0 17 17" fill="none" xmlns="http://www.w3.org/2000/svg">
<path d="M12.4037 10.6317C13.9222 12.4925 14.6215 14.0175 14.2684 14.6994C13.9976 15.2169 12.3248 16.2278 11.0943 16.615C10.0796 16.9337 8.74966 17.0708 7.65276 16.9645C6.34335 16.8377 5.01679 16.3683 3.87877 15.6281C2.92241 15.0044 2.70646 14.7474 2.70646 14.2368C2.70646 13.2122 3.83421 11.4165 5.76405 9.36723C6.86094 8.20553 8.38631 6.84165 8.55427 6.87934C8.87648 6.95131 11.4439 9.4529 12.4037 10.6317ZM6.1891 4.65532C5.17104 3.7335 4.19755 2.80825 3.22749 2.4827C2.70646 2.30794 2.66876 2.31822 2.24371 2.76028C1.2428 3.80204 0.409846 5.49147 0.176756 6.95473C-0.00834435 8.12671 -0.0323389 8.45569 0.0327891 9.02798C0.224745 10.7585 0.625797 11.9545 1.42104 13.171C1.74668 13.6713 1.83581 13.7639 1.73983 13.5103C1.59586 13.1333 1.72954 12.2252 2.06547 11.3171C2.55564 9.98064 3.91305 7.4482 6.1891 4.65532ZM16.8701 6.83137C16.2908 4.08989 14.5563 2.36619 14.313 2.36619C14.0627 2.36619 13.4834 2.58894 13.079 2.84252C12.2803 3.33942 11.6736 3.91855 10.8749 4.6519C12.3283 6.4784 14.3781 9.42892 15.0876 11.5844C15.3207 12.2938 15.4201 12.9928 15.3413 13.3766C15.283 13.6679 15.283 13.6679 15.3893 13.5343C15.5984 13.2704 16.0714 12.4617 16.2599 12.0436C16.5136 11.4884 16.7741 10.666 16.8975 10.032C17.0449 9.261 17.0312 7.60583 16.8701 6.83137ZM4.56775 1.20106C6.20281 1.11539 8.32804 2.38333 8.48572 2.41417C8.50971 2.41759 8.84221 2.27024 9.22612 2.08176C11.4165 1.01602 12.4482 1.19764 12.9076 1.2182C10.7172 -0.12855 7.67333 -0.495222 4.88997 0.817258C4.08786 1.19764 4.0673 1.22505 4.56775 1.20106Z" fill="#9E9E9E"/>
</svg>
