<svg width="18" height="21" viewBox="0 0 18 21" fill="none" xmlns="http://www.w3.org/2000/svg">
<path d="M9.6609 1.75277L8.31706 1.75002C5.25173 1.74268 2.59065 4.23327 2.56956 7.25002V12.5575C2.56956 13.2817 2.4779 13.9884 2.08281 14.5907L1.81973 14.9922C1.41915 15.6008 1.84998 16.4167 2.56956 16.4167H15.4304C16.15 16.4167 16.5799 15.6008 16.1802 14.9922L15.9171 14.5907C15.523 13.9884 15.4304 13.2808 15.4304 12.5566V7.25093C15.3937 4.23327 12.7262 1.7601 9.6609 1.75277V1.75277Z" stroke="white" stroke-width="2" stroke-linecap="round" stroke-linejoin="round"/>
<path d="M11.75 16.4167C11.75 17.146 11.4603 17.8455 10.9445 18.3612C10.4288 18.877 9.72935 19.1667 9 19.1667C8.27065 19.1667 7.57118 18.877 7.05546 18.3612C6.53973 17.8455 6.25 17.146 6.25 16.4167" stroke="white" stroke-width="2" stroke-linecap="round" stroke-linejoin="round"/>
</svg>
