<svg width="40" height="40" viewBox="0 0 24 24" fill="none" xmlns="http://www.w3.org/2000/svg">
	<mask id="path-1-inside-1" fill="white">
		<path fill-rule="evenodd" clip-rule="evenodd" d="M0.936177 20.2918C0.00784179 21.2201 -0.243013 22.4744 0.375877 23.0933C0.994768 23.7122 2.24904 23.4613 3.17738 22.533L11.4691 14.2413L19.9861 22.7583C20.9145 23.6866 22.1688 23.9375 22.7876 23.3186C23.4065 22.6997 23.1557 21.4454 22.2273 20.5171L13.7103 12.0001L22.2276 3.4828C23.1559 2.55447 23.4068 1.30019 22.7879 0.681302C22.169 0.0624115 20.9147 0.313267 19.9864 1.2416L11.4691 9.75885L3.17714 1.46685C2.2488 0.538518 0.994528 0.287663 0.375638 0.906554C-0.243252 1.52544 0.0076025 2.77972 0.935938 3.70805L9.22793 12.0001L0.936177 20.2918Z" />
	</mask>
	<path fill-rule="evenodd" clip-rule="evenodd" d="M0.936177 20.2918C0.00784179 21.2201 -0.243013 22.4744 0.375877 23.0933C0.994768 23.7122 2.24904 23.4613 3.17738 22.533L11.4691 14.2413L19.9861 22.7583C20.9145 23.6866 22.1688 23.9375 22.7876 23.3186C23.4065 22.6997 23.1557 21.4454 22.2273 20.5171L13.7103 12.0001L22.2276 3.4828C23.1559 2.55447 23.4068 1.30019 22.7879 0.681302C22.169 0.0624115 20.9147 0.313267 19.9864 1.2416L11.4691 9.75885L3.17714 1.46685C2.2488 0.538518 0.994528 0.287663 0.375638 0.906554C-0.243252 1.52544 0.0076025 2.77972 0.935938 3.70805L9.22793 12.0001L0.936177 20.2918Z" fill="#ffffff" />
	<path d="M0.936177 20.2918L1.64328 20.9989H1.64328L0.936177 20.2918ZM3.17738 22.533L3.88448 23.2401H3.88449L3.17738 22.533ZM11.4691 14.2413L12.1762 13.5341C11.9887 13.3466 11.7344 13.2413 11.4691 13.2413C11.2039 13.2413 10.9496 13.3466 10.762 13.5341L11.4691 14.2413ZM22.7876 23.3186L22.0805 22.6115V22.6115L22.7876 23.3186ZM13.7103 12.0001L13.0032 11.2929C12.6127 11.6835 12.6127 12.3166 13.0032 12.7072L13.7103 12.0001ZM22.2276 3.4828L21.5205 2.7757V2.7757L22.2276 3.4828ZM22.7879 0.681302L23.495 -0.025805L23.495 -0.025805L22.7879 0.681302ZM19.9864 1.2416L20.6935 1.94871V1.94871L19.9864 1.2416ZM11.4691 9.75885L10.762 10.466C11.1526 10.8565 11.7857 10.8565 12.1762 10.466L11.4691 9.75885ZM3.17714 1.46685L2.47003 2.17396L3.17714 1.46685ZM0.375638 0.906554L-0.331469 0.199447V0.199447L0.375638 0.906554ZM0.935938 3.70805L0.228831 4.41516H0.228831L0.935938 3.70805ZM9.22793 12.0001L9.93504 12.7072C10.1226 12.5196 10.2279 12.2653 10.2279 12.0001C10.2279 11.7348 10.1226 11.4805 9.93504 11.2929L9.22793 12.0001ZM1.08298 22.3862C1.07688 22.3801 1.05998 22.3618 1.04767 22.3068C1.03426 22.2468 1.02808 22.1463 1.0564 22.0047C1.11401 21.7167 1.29925 21.343 1.64328 20.9989L0.229071 19.5847C-0.355226 20.169 -0.759581 20.8866 -0.904763 21.6125C-1.0483 22.3302 -0.950658 23.181 -0.33123 23.8004L1.08298 22.3862ZM2.47027 21.8259C2.12623 22.1699 1.75251 22.3552 1.46447 22.4128C1.3229 22.4411 1.22238 22.4349 1.16242 22.4215C1.1074 22.4092 1.08908 22.3923 1.08298 22.3862L-0.33123 23.8004C0.288199 24.4198 1.13903 24.5175 1.8567 24.3739C2.58261 24.2288 3.30019 23.8244 3.88448 23.2401L2.47027 21.8259ZM10.762 13.5341L2.47027 21.8259L3.88449 23.2401L12.1762 14.9484L10.762 13.5341ZM20.6933 22.0512L12.1762 13.5341L10.762 14.9484L19.279 23.4654L20.6933 22.0512ZM22.0805 22.6115C22.0744 22.6176 22.0561 22.6345 22.0011 22.6468C21.9411 22.6602 21.8406 22.6664 21.6991 22.638C21.411 22.5804 21.0373 22.3952 20.6933 22.0512L19.279 23.4654C19.8633 24.0497 20.5809 24.454 21.3068 24.5992C22.0245 24.7427 22.8753 24.6451 23.4948 24.0257L22.0805 22.6115ZM21.5202 21.2242C21.8643 21.5682 22.0495 21.9419 22.1071 22.23C22.1354 22.3715 22.1293 22.4721 22.1158 22.532C22.1035 22.587 22.0866 22.6054 22.0805 22.6115L23.4948 24.0257C24.1142 23.4062 24.2118 22.5554 24.0683 21.8377C23.9231 21.1118 23.5187 20.3942 22.9345 19.81L21.5202 21.2242ZM13.0032 12.7072L21.5202 21.2242L22.9345 19.81L14.4174 11.2929L13.0032 12.7072ZM21.5205 2.7757L13.0032 11.2929L14.4174 12.7072L22.9347 4.18991L21.5205 2.7757ZM22.0808 1.38841C22.0869 1.39451 22.1038 1.41283 22.1161 1.46785C22.1295 1.52781 22.1357 1.62832 22.1074 1.76989C22.0498 2.05793 21.8645 2.43166 21.5205 2.7757L22.9347 4.18991C23.519 3.60561 23.9233 2.88804 24.0685 2.16213C24.2121 1.44446 24.1144 0.593624 23.495 -0.025805L22.0808 1.38841ZM20.6935 1.94871C21.0375 1.60467 21.4113 1.41943 21.6993 1.36182C21.8409 1.33351 21.9414 1.33969 22.0013 1.3531C22.0564 1.3654 22.0747 1.38231 22.0808 1.38841L23.495 -0.025805C22.8756 -0.645234 22.0247 -0.742872 21.3071 -0.599338C20.5812 -0.454156 19.8636 -0.0498015 19.2793 0.534496L20.6935 1.94871ZM12.1762 10.466L20.6935 1.94871L19.2793 0.534495L10.762 9.05174L12.1762 10.466ZM2.47003 2.17396L10.762 10.466L12.1762 9.05174L3.88425 0.759747L2.47003 2.17396ZM1.08274 1.61366C1.08885 1.60756 1.10716 1.59065 1.16218 1.57835C1.22214 1.56494 1.32266 1.55876 1.46423 1.58707C1.75227 1.64468 2.12599 1.82992 2.47003 2.17396L3.88425 0.759747C3.29995 0.17545 2.58237 -0.228905 1.85646 -0.374087C1.13879 -0.517621 0.28796 -0.419982 -0.331469 0.199447L1.08274 1.61366ZM1.64304 3.00095C1.29901 2.65691 1.11377 2.28318 1.05616 1.99515C1.02784 1.85357 1.03402 1.75306 1.04743 1.6931C1.05974 1.63808 1.07664 1.61976 1.08274 1.61366L-0.331469 0.199447C-0.950897 0.818876 -1.04854 1.66971 -0.905002 2.38738C-0.759821 3.11329 -0.355466 3.83086 0.228831 4.41516L1.64304 3.00095ZM9.93504 11.2929L1.64304 3.00095L0.228831 4.41516L8.52083 12.7072L9.93504 11.2929ZM1.64328 20.9989L9.93504 12.7072L8.52083 11.2929L0.229071 19.5847L1.64328 20.9989Z" fill="#ffffff" mask="url(#path-1-inside-1)" />
</svg>
