<svg width="80" height="40" viewBox="0 0 28 24" fill="none" xmlns="http://www.w3.org/2000/svg">
	<path fill-rule="evenodd" clip-rule="evenodd" d="M0.0361328 2.06344C0.0361328 0.97642 0.968586 0.0952148 2.11882 0.0952148H25.7227C26.8729 0.0952148 27.8054 0.97642 27.8054 2.06344C27.8054 3.15046 26.8729 4.03167 25.7227 4.03167H2.11882C0.968586 4.03167 0.0361328 3.15046 0.0361328 2.06344Z" fill="#FFFFFF" />
	<path fill-rule="evenodd" clip-rule="evenodd" d="M0.0361328 12C0.0361328 10.9129 0.968586 10.0317 2.11882 10.0317H25.7227C26.8729 10.0317 27.8054 10.9129 27.8054 12C27.8054 13.087 26.8729 13.9682 25.7227 13.9682H2.11882C0.968586 13.9682 0.0361328 13.087 0.0361328 12Z" fill="#FFFFFF" />
	<path fill-rule="evenodd" clip-rule="evenodd" d="M0.0361328 21.9365C0.0361328 20.8495 0.968586 19.9683 2.11882 19.9683H25.7227C26.8729 19.9683 27.8054 20.8495 27.8054 21.9365C27.8054 23.0235 26.8729 23.9047 25.7227 23.9047H2.11882C0.968586 23.9047 0.0361328 23.0235 0.0361328 21.9365Z" fill="#FFFFFF" />
</svg>
