<svg width="17" height="21" viewBox="0 0 17 21" fill="none" xmlns="http://www.w3.org/2000/svg">
<path d="M1.54445 0C0.414318 0 0 0.44426 0 1.64383V16.1351C0 16.2723 0.00678197 16.3982 0.0166467 16.5151C0.0456243 16.7782 0.0456243 17.0348 0.276212 17.3215C0.298408 17.3557 0.530229 17.5368 0.530229 17.5368C0.655387 17.6018 0.741704 17.6497 0.882893 17.7107L7.73579 20.766C8.08907 20.9373 8.24074 21.0095 8.49723 20.999H8.50031C8.75987 21.0095 8.91154 20.938 9.26482 20.766L16.114 17.7107C16.2589 17.6497 16.3415 17.6011 16.4698 17.5368C16.4698 17.5368 16.7016 17.3485 16.7238 17.3215C16.955 17.0348 16.955 16.7782 16.9834 16.5151C16.9932 16.3989 17 16.2729 17 16.139V1.64448C17 0.444916 16.5826 0.000656219 15.4556 0.000656219L1.54445 0ZM12.5239 2.72003H13.0819C14.0135 2.72003 14.4697 3.20235 14.4697 4.20767V5.8515H13.3396V4.27198C13.3396 3.95109 13.2015 3.8041 12.9086 3.8041H12.7162C12.4148 3.8041 12.2766 3.95109 12.2766 4.27198V9.35702C12.2766 9.67791 12.4148 9.82491 12.7162 9.82491H12.9314C13.22 9.82491 13.3581 9.67791 13.3581 9.35702V7.53864H14.4882V9.41543C14.4882 10.4162 14.0264 10.909 13.0917 10.909H12.5239C11.5861 10.909 11.1262 10.4129 11.1262 9.41543V4.21621C11.1262 3.21547 11.5855 2.72003 12.5239 2.72003ZM2.50441 2.78959H5.06369V3.90713H3.65365V6.18289H5.01251V7.29781H3.65365V9.72385H5.08342V10.842H2.50441V2.78959ZM5.64139 2.78959H7.44663C8.3807 2.78959 8.84311 3.28503 8.84311 4.28576V6.42569C8.84311 7.42643 8.38008 7.91925 7.44663 7.91925H6.79494V10.8414H5.64139V2.78959ZM9.36347 2.78959H10.5127V10.842H9.36347V2.78959ZM6.79124 3.87235V6.83845H7.2666C7.55576 6.83845 7.69387 6.68884 7.69387 6.36663V4.34351C7.69387 4.02262 7.55576 3.87169 7.2666 3.87169L6.79124 3.87235ZM3.62159 12.7549H3.79175L3.8306 12.7621H3.89225L3.92431 12.7726H3.95637L3.98535 12.7825L4.01741 12.7897L4.04269 12.7969L4.10003 12.8107L4.1327 12.8205L4.1549 12.8278L4.18018 12.8383L4.21224 12.8488L4.23443 12.8586L4.26711 12.8724L4.29609 12.8862L4.32137 12.9026L4.35034 12.9164L4.37254 12.9328L4.40522 12.9505L4.43049 12.9669L4.45577 12.9807L4.48105 13.001L4.50756 13.0187L4.52976 13.0391L4.60683 13.1014L4.5871 13.1283L4.5649 13.1519L4.54517 13.1762L4.52298 13.2031L4.50756 13.2267L4.48783 13.251L4.46564 13.2746L4.44591 13.3016L4.43049 13.3252L4.40768 13.3534L4.38857 13.377L4.36637 13.4039L4.34664 13.4282L4.33123 13.4551L4.30842 13.4787L4.2893 13.5069L4.26711 13.5306L4.24738 13.5542L4.22518 13.5378L4.19991 13.5135L4.17339 13.4971L4.12592 13.463L4.09694 13.4453L4.07043 13.4289L4.04145 13.4111L4.01926 13.3974L3.99398 13.3842L3.94219 13.3632L3.91013 13.3573L3.88485 13.3501L3.85587 13.3429L3.8232 13.3357L3.79114 13.3324H3.75908L3.72147 13.3252H3.65981L3.62775 13.3285H3.59569L3.56363 13.339L3.53835 13.3462L3.50938 13.3567L3.4804 13.3626L3.45389 13.3764L3.42183 13.3901L3.37743 13.4243L3.35092 13.4407L3.32873 13.4617L3.30653 13.4781L3.28372 13.4991L3.26831 13.5227L3.2418 13.5463L3.20973 13.5942L3.19432 13.6211L3.18137 13.652L3.16596 13.6763L3.14931 13.7071L3.13945 13.7379L3.12712 13.7648L3.11725 13.799L3.11417 13.8331L3.10492 13.8646L3.09814 13.8987V13.9328L3.09506 13.967V14.0457L3.09814 14.0798V14.1067L3.10122 14.1409L3.10677 14.1717L3.11664 14.1986L3.11972 14.2334L3.12958 14.2603L3.13883 14.2839L3.15178 14.318L3.16843 14.3522L3.18076 14.3764L3.21282 14.4309L3.23255 14.4578L3.24796 14.4821L3.27447 14.5024L3.28989 14.5261L3.31208 14.5471L3.36387 14.5884L3.38607 14.6015L3.41134 14.6192L3.44094 14.633L3.473 14.6461L3.49519 14.6599L3.55931 14.6803L3.58829 14.6835L3.62035 14.694L3.65241 14.6973H3.79052L3.82936 14.694H3.85834L3.89102 14.6803L3.92308 14.677L3.95514 14.6671L3.98042 14.6599L4.00939 14.6461L4.03467 14.633L4.06365 14.6192L4.08338 14.6055L4.10866 14.5891V14.2846H3.6555V13.7963H4.67958V14.8903L4.65738 14.9067L4.63519 14.927L4.61237 14.9447L4.5871 14.9651L4.56182 14.9788L4.53962 14.9998L4.48783 15.034L4.45577 15.0504L4.4046 15.0845L4.37192 15.0983L4.34664 15.1114L4.31767 15.1252L4.25355 15.1521L4.22827 15.1659L4.1697 15.1862L4.14072 15.1934L4.11174 15.2039L4.07968 15.2144L4.0544 15.2203L3.95822 15.2413L3.92863 15.2446L3.86451 15.2518L3.82936 15.2551L3.7973 15.2577L3.76216 15.261H3.60186L3.5698 15.2551H3.53774L3.50568 15.2479H3.4767L3.44464 15.2374L3.35092 15.2171L3.32564 15.2066L3.29667 15.2033L3.26461 15.1895L3.20604 15.1692L3.1487 15.1422L3.11664 15.1285L3.09444 15.1147L3.06238 15.1016L3.03957 15.0806L3.00751 15.0674L2.98839 15.0497L2.96312 15.0333L2.91133 14.992L2.88605 14.9743L2.86632 14.9539L2.84104 14.9329L2.79912 14.8889L2.77692 14.8679L2.75781 14.8443L2.73499 14.82L2.71958 14.7931L2.69985 14.7728L2.68444 14.7446L2.66471 14.7177L2.64929 14.694L2.63265 14.6671L2.61723 14.6356L2.60429 14.6087L2.59134 14.5779L2.57901 14.551L2.55373 14.4887L2.54387 14.465L2.53092 14.4342L2.52414 14.4033L2.51859 14.3764L2.51181 14.3423L2.50194 14.3108L2.49516 14.2767L2.49208 14.2498L2.48653 14.2157L2.47974 14.1546L2.47296 14.0864V13.9053L2.47974 13.8705V13.8364L2.48961 13.8022V13.7681L2.49886 13.7373L2.50872 13.7032L2.52167 13.6421L2.53092 13.608L2.54078 13.5772L2.57963 13.4846L2.59196 13.4577L2.6049 13.4269L2.62155 13.3954L2.63388 13.3685L2.65053 13.3449L2.68259 13.2897L2.7017 13.2628L2.72143 13.2392L2.73684 13.2123L2.77877 13.1677L2.79788 13.1434L2.82069 13.1198L2.83981 13.0962L2.86632 13.0752L2.91071 13.0338L2.93599 13.0135L2.9625 12.9958L2.9847 12.9754L3.00997 12.9577L3.03649 12.9446L3.06546 12.9269L3.09752 12.9104L3.11972 12.8927L3.15178 12.8796L3.18076 12.8658L3.20973 12.8494L3.23625 12.8422L3.26831 12.8317L3.29358 12.8179L3.32256 12.812L3.35154 12.8015L3.3836 12.7943L3.41011 12.7838L3.44217 12.7766H3.47423L3.50321 12.7667H3.53527L3.56733 12.7595H3.59631L3.62159 12.7549ZM13.4771 12.7621H13.6472L13.6861 12.7694H13.7471L13.7792 12.7792H13.8143L13.8464 12.7897L13.9037 12.8035L13.9358 12.8107L13.9647 12.8166L13.9974 12.8271L14.0264 12.8376L14.0517 12.8448L14.0807 12.8547L14.1127 12.8652L14.138 12.8789L14.1701 12.8921L14.1997 12.9059L14.2286 12.9236L14.2508 12.9367L14.2798 12.9544L14.3088 12.9675L14.3353 12.9853L14.3643 13.0056L14.3865 13.0233L14.4383 13.0647L14.4635 13.0811L14.4438 13.108L14.4284 13.1362L14.4093 13.1598L14.3895 13.1867L14.3741 13.2176L14.3575 13.2458L14.3384 13.2694L14.3186 13.2963L14.3032 13.3245L14.2835 13.3514L14.2681 13.375L14.2484 13.402L14.2329 13.4335L14.2132 13.4604L14.1941 13.484L14.1744 13.5109L14.159 13.5391L14.1337 13.5181L14.1041 13.5017L14.0819 13.484L14.0566 13.4676L14.0276 13.4538L14.0011 13.4361L13.9721 13.423L13.95 13.4092L13.9179 13.396L13.8951 13.3823L13.8698 13.3718L13.8125 13.3514L13.7483 13.3304L13.6522 13.3101L13.6201 13.3068L13.5615 13.2996H13.4943L13.4592 13.3068L13.4271 13.314L13.3981 13.3212L13.3729 13.3344L13.3501 13.3481L13.3248 13.3718L13.3057 13.4026L13.2927 13.4341V13.5155L13.3094 13.5529L13.3217 13.5739L13.3414 13.5942L13.3735 13.6119L13.3988 13.6283L13.4277 13.6421L13.4598 13.6553L13.5017 13.6658L13.5239 13.6763L13.5504 13.6835L13.5825 13.6907L13.6078 13.7005L13.6367 13.7078L13.6719 13.7183L13.7039 13.7287L13.7391 13.7386L13.7742 13.7458L13.8032 13.7563L13.8384 13.7662L13.8704 13.7734L13.8994 13.7806L13.9962 13.8114L14.0215 13.8219L14.0535 13.8324L14.0825 13.8456L14.1146 13.8633L14.1787 13.8902L14.2077 13.9079L14.2595 13.942L14.3069 13.9794L14.3365 13.9998L14.3587 14.0234L14.3809 14.0516L14.4037 14.0752L14.4191 14.0989L14.442 14.133L14.4574 14.1573L14.4703 14.1914L14.4826 14.2117L14.4925 14.2459L14.5024 14.2741L14.5092 14.3049L14.5215 14.3732L14.5246 14.4073L14.5277 14.4381V14.5202L14.5246 14.5576L14.5178 14.6258L14.511 14.6599L14.5018 14.6908L14.495 14.7249L14.4851 14.759L14.4759 14.7899L14.4629 14.8141L14.45 14.845L14.4346 14.8719L14.4148 14.8962L14.3828 14.9506L14.3439 14.9985L14.3217 15.0149L14.2964 15.0392L14.2767 15.0596L14.2514 15.0799L14.2262 15.0937L14.2009 15.1147L14.1713 15.1311L14.114 15.1619L14.0819 15.1757L14.0529 15.1888L14.0209 15.1993L13.9919 15.2098L13.9654 15.2171L13.9012 15.2302L13.879 15.2374L13.847 15.2446H13.8149L13.786 15.2518H13.7539L13.7218 15.2591H13.4931L13.3969 15.2486L13.3649 15.2413L13.3359 15.2381L13.2718 15.2249L13.2366 15.2177L13.2076 15.2105L13.1756 15.2L13.1429 15.1928L13.1139 15.1829L13.0819 15.1724L13.0498 15.1587L13.0245 15.1488L12.9925 15.1383L12.9604 15.1245L12.9376 15.1114L12.9055 15.1009L12.8802 15.0832L12.8482 15.0701L12.8229 15.0523L12.8001 15.0359L12.768 15.0182L12.7458 15.0051L12.7206 14.9841L12.6953 14.9677L12.6688 14.9467L12.6466 14.9263L12.6213 14.9054L12.5985 14.8889L12.5732 14.8647L12.5929 14.8378L12.6151 14.8141L12.6342 14.7899L12.6571 14.763L12.6725 14.7393L12.6922 14.7124L12.7144 14.6881L12.7335 14.6645L12.7563 14.6376L12.7717 14.6133L12.7945 14.5897L12.8137 14.5628L12.8334 14.5385L12.8556 14.5116L12.871 14.488L12.8938 14.4637L12.916 14.4368L12.9382 14.4578L12.9678 14.4782L12.99 14.4985L13.022 14.5162L13.0442 14.5339L13.0732 14.5543L13.0997 14.572L13.1287 14.5851L13.1509 14.6028L13.1799 14.6127L13.2119 14.6265L13.2385 14.6402L13.2674 14.6501L13.2927 14.6639L13.3248 14.6744L13.3538 14.6842L13.3858 14.6947L13.4179 14.698L13.4475 14.7085L13.4795 14.7118H13.5147L13.5436 14.7216H13.7169L13.7459 14.7157L13.7779 14.7085L13.8001 14.7052L13.8266 14.6947L13.8488 14.6816L13.8778 14.6606L13.8945 14.637L13.9068 14.6101L13.9167 14.5786V14.4998L13.9037 14.469L13.8883 14.4421L13.8686 14.4217L13.8396 14.4007L13.8174 14.3909L13.7884 14.3771L13.7564 14.3633L13.7212 14.3469L13.6984 14.3397L13.6731 14.3325L13.6411 14.322L13.6189 14.3161L13.5868 14.3056L13.5547 14.3023L13.5221 14.2885L13.49 14.2852L13.4549 14.2754L13.4259 14.2682L13.3938 14.2577L13.3618 14.2504L13.3297 14.2406L13.3007 14.2301L13.2687 14.2229L13.2434 14.2124L13.1848 14.192L13.1528 14.1783L13.1207 14.1684L13.0566 14.1402L13.0276 14.1238L12.9955 14.1061L12.9733 14.0897L12.9437 14.072L12.9216 14.0555L12.8926 14.0378L12.8506 13.9932L12.8285 13.9729L12.7896 13.925L12.773 13.9013L12.7606 13.8777L12.7409 13.8462L12.7317 13.8226L12.7021 13.7406L12.6965 13.7064L12.6897 13.6756V13.6448L12.683 13.6106V13.4709L12.6897 13.4026L12.6965 13.3744L12.7021 13.3435L12.7119 13.3166L12.7187 13.2825L12.7317 13.2589L12.744 13.2241L12.7569 13.1972L12.7693 13.1631L12.7859 13.1395L12.8081 13.1126L12.8248 13.0843L12.85 13.0607L12.8691 13.0371L12.8889 13.0089L12.9179 12.9853L12.9376 12.9675L12.9629 12.9472L13.014 12.9131L13.043 12.8954L13.1016 12.8645L13.1269 12.8547L13.1558 12.8442L13.1879 12.8304L13.22 12.8205L13.2428 12.8133L13.2718 12.8061L13.297 12.7989L13.326 12.7917L13.3581 12.7845L13.4222 12.7785L13.4518 12.7753L13.4771 12.7621ZM5.88246 12.7858H6.46386L6.49037 12.8481L6.5027 12.875L6.51257 12.9091L6.52552 12.94L6.53476 12.9669L6.55141 12.9977L6.57052 13.0601L6.58717 13.0909L6.61245 13.1519L6.61923 13.1788L6.6704 13.3022L6.68027 13.3331L6.69321 13.3613L6.70863 13.3921L6.71541 13.423L6.73206 13.4571L6.73761 13.4879L6.7672 13.5489L6.77953 13.5732L6.79248 13.6074L6.80234 13.6415L6.81159 13.6651L6.82824 13.6992L6.8381 13.7274L6.85043 13.7616L6.8603 13.7852L6.87325 13.8193L6.90222 13.8803L6.91147 13.9112L6.91825 13.9427L6.9312 13.9735L6.94661 14.0004L6.95956 14.0345L6.97251 14.0654L6.98176 14.0923L7.00827 14.1546L7.01752 14.1855L7.03047 14.2163L7.04033 14.2472L7.05266 14.2741L7.06931 14.3056L7.08164 14.3364L7.09459 14.3633L7.10137 14.3974L7.12665 14.4585L7.13959 14.4867L7.14884 14.5175L7.17535 14.5786L7.19077 14.6127L7.19755 14.6396L7.2142 14.6744L7.21974 14.698L7.23269 14.7321L7.24934 14.7662L7.26167 14.7899L7.27153 14.824L7.28448 14.8522L7.29373 14.8863L7.31038 14.9099L7.32949 14.9782L7.34244 15.0025L7.35477 15.0366L7.37141 15.0635L7.38436 15.0976L7.38991 15.1285L7.39978 15.1554L7.41272 15.1862L7.42814 15.2144H6.78631L6.7709 15.1862L6.76103 15.1554L6.74809 15.1245L6.73576 15.0904L6.72897 15.0635L6.70246 15.0025L6.69321 14.9743L6.66794 14.9132L6.65807 14.8863L6.64512 14.8522L6.62601 14.7899L6.61306 14.763H5.72031L5.70798 14.7938L5.69811 14.822L5.68516 14.8561L5.67283 14.887L5.66605 14.9139L5.6531 14.948L5.64077 14.9749L5.63091 15.0058L5.61796 15.034L5.60563 15.0681L5.59576 15.0917L5.58282 15.1258L5.57357 15.16L5.56062 15.1842L5.55076 15.2184H4.9151L4.92435 15.1869L4.95086 15.1258L4.96011 15.0917L4.96997 15.0648L4.98662 15.034L4.99895 15.0031L5.0119 14.9749L5.01868 14.9441L5.03101 14.9099L5.04766 14.883L5.05999 14.8522L5.07972 14.7899L5.10869 14.7288L5.11856 14.698L5.13089 14.6711L5.14075 14.6396L5.1796 14.5477L5.19254 14.5136L5.20179 14.4867L5.21166 14.4558L5.2283 14.4276L5.24063 14.3935L5.2505 14.3627L5.26036 14.3358L5.27269 14.3016L5.28934 14.2773L5.29921 14.2432L5.31154 14.2163L5.3214 14.1855L5.33435 14.1514L5.34976 14.1245L5.35963 14.0903L5.37196 14.066L5.38182 14.0319L5.39477 13.9978L5.4071 13.9742L5.42005 13.9401L5.42991 13.9118L5.44225 13.8777L5.45211 13.8541L5.46876 13.82L5.48109 13.7858L5.49403 13.7589L5.50082 13.7281L5.51315 13.6966L5.52979 13.6658L5.54212 13.6388L5.54891 13.6047L5.56185 13.5739L5.5748 13.5457L5.60008 13.4846L5.60933 13.4577L5.63584 13.3895L5.64817 13.3652L5.66112 13.3311L5.67098 13.3042L5.68023 13.2701L5.69318 13.2392L5.70983 13.2123L5.72216 13.1782L5.73202 13.1539L5.74189 13.1198L5.75422 13.0929L5.77086 13.062L5.78073 13.0279L5.78998 12.9997L5.80292 12.9656L5.81525 12.9419L5.8319 12.9078L5.84177 12.8737L5.85101 12.8501L5.86396 12.816L5.88246 12.7858ZM7.6877 12.8035H8.32336L8.34309 12.8304L8.37515 12.8855L8.39056 12.9164L8.40721 12.94L8.42262 12.9708L8.43927 12.9977L8.45469 13.0292L8.47133 13.0561L8.48674 13.0797L8.50339 13.1106L8.51881 13.1388L8.54162 13.1657L8.55087 13.1926L8.57059 13.2235L8.58601 13.2517L8.60574 13.2753L8.61869 13.3061L8.6341 13.3331L8.65383 13.3613L8.66308 13.3882L8.68589 13.419L8.73336 13.501L8.74631 13.5279L8.76542 13.5549L8.78207 13.5818L8.79748 13.6133L8.84619 13.6946L8.8616 13.7261L8.87825 13.753L8.89736 13.7261L8.91031 13.6913L8.92942 13.6677L8.94607 13.6369L8.96148 13.6133L8.97443 13.5791L8.99663 13.5549L9.01327 13.524L9.02622 13.5004L9.04164 13.4722L9.06136 13.4413L9.07678 13.4177L9.09342 13.3836L9.10884 13.36L9.12857 13.3285L9.1409 13.3048L9.15755 13.2707L9.17296 13.2504L9.18961 13.2221L9.20872 13.188L9.22537 13.1644L9.2377 13.1336L9.25743 13.1093L9.27284 13.0752L9.28949 13.0548L9.3086 13.0279L9.32525 12.9938L9.34066 12.9695L9.35731 12.9387L9.37272 12.915L9.38937 12.8809L9.40848 12.8566L9.42143 12.8258L9.43807 12.8022H10.0836V15.2426H9.47938V13.8068L9.46397 13.8311L9.44424 13.8652L9.42883 13.8856L9.4091 13.9125L9.39676 13.9466L9.37704 13.9709L9.36162 13.9945L9.34189 14.0286L9.30983 14.0765L9.29072 14.1035L9.27407 14.1376L9.25496 14.1619L9.23831 14.1855L9.22598 14.2196L9.20625 14.2432L9.19084 14.2675L9.17111 14.3016L9.1557 14.3253L9.13597 14.3522L9.12055 14.383L9.10761 14.4073L9.08849 14.4342L9.07185 14.465L9.05273 14.4887L9.033 14.5169L9.02067 14.5438L9.00403 14.5746L8.98491 14.5989L8.96518 14.6258L8.95285 14.6599L8.93004 14.6803L8.91771 14.7072L8.89798 14.742L8.88257 14.7656H8.86962L8.85051 14.7347L8.83386 14.7065L8.81845 14.6757L8.8018 14.652L8.78269 14.6212L8.76604 14.5943L8.74693 14.5661L8.73028 14.5392L8.71487 14.5083L8.69822 14.4847L8.67602 14.4532L8.66308 14.4263L8.64396 14.3955L8.62732 14.3718L8.6119 14.341L8.59217 14.3128L8.57676 14.2787L8.55703 14.255L8.54162 14.2242L8.52497 14.196L8.50956 14.1651L8.48983 14.1415L8.47441 14.1107L8.45469 14.0838L8.44235 14.0555L8.42262 14.0286L8.40721 13.9978L8.38748 13.9742L8.37207 13.9427L8.35234 13.9158L8.34001 13.8849L8.31719 13.8613L8.30486 13.8298L8.28514 13.8029V15.242H7.6914V12.8251L7.6877 12.8035ZM10.5386 12.8035H12.3469V13.354H11.1391V13.7471H12.2242V14.2668H11.1391V14.6835H12.3623V15.2374H10.5417V12.8245L10.5386 12.8035ZM6.16483 13.5516L6.15497 13.5824L6.14572 13.6106L6.13278 13.6448L6.11983 13.6756L6.11058 13.7064L6.08407 13.7675L6.07174 13.8016L6.06187 13.8298L6.05201 13.8639L6.03968 13.8876L6.02981 13.9217L6.01686 13.9558L6.00453 13.9801L5.99467 14.0142L5.98234 14.0411L5.97247 14.0752L5.95583 14.1061L5.94905 14.133L5.93671 14.1671L5.92377 14.1986L5.9139 14.2255L5.90157 14.2596H6.43118L6.41885 14.2255L6.40899 14.1947L6.38371 14.1323L6.37384 14.1015L6.3609 14.0746L6.35165 14.0405L6.3387 14.0096L6.32884 13.9788L6.31651 13.9506L6.30664 13.9197L6.29369 13.8856L6.28444 13.8587L6.25793 13.7977L6.25238 13.7662L6.23944 13.7353L6.22649 13.7012L6.21724 13.6776L6.19073 13.6093L6.18148 13.5785L6.16483 13.5516ZM5.22152 18.1215H11.8068L8.44544 19.3007L5.22152 18.1215Z" fill="white"/>
</svg>
