<svg width="21" height="21" viewBox="0 0 21 21" fill="none" xmlns="http://www.w3.org/2000/svg">
<path d="M12.4038 21H15.6201C18.5732 21 21 18.5732 21 15.6201V5.37994C21 2.42681 18.5732 0 15.6201 0H12.3388C12.2738 0 12.2056 0.0649687 12.2056 0.129937V20.8701C12.2056 20.935 12.2706 21 12.4038 21ZM16.4062 9.45066C17.5888 9.45066 18.5049 10.435 18.5049 11.5493C18.5049 12.7319 17.5206 13.648 16.4062 13.648C15.2237 13.648 14.3076 12.7319 14.3076 11.5493C14.2393 10.3701 15.2237 9.45066 16.4062 9.45066ZM9.97369 0H5.37994C2.42681 0 0 2.42681 0 5.37994V15.6201C0 18.5732 2.42681 21 5.37994 21H9.97369C10.0387 21 10.1069 20.935 10.1069 20.8701V0.129937C10.1069 0.0649687 10.0419 0 9.97369 0ZM8.46628 19.2944H5.37994C4.8972 19.2952 4.41905 19.2007 3.97291 19.0163C3.52676 18.8319 3.1214 18.5613 2.78005 18.22C2.4387 17.8786 2.16808 17.4732 1.9837 17.0271C1.79932 16.5809 1.70482 16.1028 1.70559 15.6201V5.37994C1.70482 4.8972 1.79932 4.41905 1.9837 3.97291C2.16808 3.52676 2.4387 3.1214 2.78005 2.78005C3.1214 2.4387 3.52676 2.16808 3.97291 1.9837C4.41905 1.79932 4.8972 1.70482 5.37994 1.70559H8.40131L8.46628 19.2944ZM3.28125 6.29934C3.28125 7.41366 4.13569 8.26809 5.25 8.26809C6.36431 8.26809 7.21875 7.41366 7.21875 6.29934C7.21875 5.18503 6.36431 4.33059 5.25 4.33059C4.13569 4.33059 3.28125 5.18503 3.28125 6.29934Z" fill="white"/>
</svg>
