<svg width="25" height="18" viewBox="0 0 25 18" fill="none" xmlns="http://www.w3.org/2000/svg">
<path d="M24.7788 13.7804C24.2884 14.3555 23.0949 14.7645 23.0949 14.7645L14.1933 17.7449V15.546L20.7425 13.3674C21.4847 13.1204 21.6019 12.7681 20.9943 12.5818C20.391 12.3955 19.2973 12.4481 18.5551 12.6992L14.1933 14.1368V11.8529C15.2002 11.537 16.2375 11.3021 17.4788 11.1726C19.2539 10.9903 21.4239 11.1968 23.1296 11.8002C25.0479 12.3672 25.2649 13.2054 24.7788 13.7804ZM15.0397 10.0346V4.40585C15.0397 3.74578 14.9095 3.13836 14.2454 2.96423C13.7376 2.81035 13.4208 3.25174 13.4208 3.91181V18L9.34981 16.7933V0C11.0815 0.299663 13.6031 1.00832 14.9572 1.43352C18.4076 2.53903 19.5751 3.91586 19.5751 7.01372C19.5751 10.0306 17.5786 11.1766 15.0397 10.0346ZM1.87618 15.3152C-0.0942139 14.7969 -0.42406 13.7156 0.474337 13.0961C1.30329 12.521 2.71816 12.0877 2.71816 12.0877L8.55558 10.1521V12.3591L4.35437 13.7602C3.61222 14.0072 3.49938 14.3595 4.10265 14.5458C4.70592 14.7321 5.79962 14.6794 6.54178 14.4283L8.55558 13.744V15.7201C6.31609 16.0967 4.15473 16.0157 1.87618 15.3152Z" fill="white"/>
</svg>
