<svg width="21" height="21" viewBox="0 0 21 21" fill="none" xmlns="http://www.w3.org/2000/svg">
<path d="M15.3222 13.1333C17.198 15.4319 18.0618 17.3157 17.6257 18.1581C17.2912 18.7973 15.2248 20.0461 13.7047 20.5244C12.4513 20.9181 10.8084 21.0874 9.45341 20.9562C7.8359 20.7996 6.19722 20.2196 4.79142 19.3053C3.61004 18.5348 3.34328 18.2173 3.34328 17.5866C3.34328 16.3209 4.73637 14.1027 7.1203 11.5713C8.47528 10.1362 10.3596 8.45145 10.567 8.49801C10.9651 8.58691 14.1366 11.6771 15.3222 13.1333ZM7.64536 5.75069C6.38776 4.61197 5.18521 3.46902 3.9869 3.06687C3.34328 2.85098 3.2967 2.86368 2.77165 3.40976C1.53522 4.69664 0.50628 6.78358 0.218346 8.59114C-0.0103077 10.0389 -0.039948 10.4453 0.0405042 11.1522C0.277627 13.2899 0.773043 14.7673 1.75541 16.2701C2.15767 16.8881 2.26776 17.0024 2.1492 16.6892C1.97136 16.2235 2.1365 15.1017 2.55146 13.98C3.15697 12.329 4.83376 9.20072 7.64536 5.75069ZM20.8395 8.43875C20.1239 5.05222 17.9813 2.92294 17.6807 2.92294C17.3716 2.92294 16.656 3.1981 16.1564 3.51135C15.1698 4.12516 14.4203 4.84056 13.4337 5.74646C15.229 8.00273 17.7612 11.6475 18.6377 14.3101C18.9256 15.1864 19.0484 16.05 18.951 16.5241C18.879 16.8839 18.879 16.8839 19.0103 16.7188C19.2686 16.3929 19.8529 15.3938 20.0858 14.8774C20.3991 14.1916 20.721 13.1757 20.8734 12.3925C21.0555 11.4401 21.0385 9.39544 20.8395 8.43875ZM5.64252 1.48367C7.66229 1.37784 10.2876 2.94411 10.4824 2.98221C10.512 2.98644 10.9227 2.80441 11.397 2.57159C14.1027 1.25508 15.3772 1.47944 15.9446 1.50483C13.2389 -0.158797 9.47882 -0.611745 6.04055 1.00955C5.04971 1.47944 5.02431 1.5133 5.64252 1.48367Z" fill="white"/>
</svg>
